<svg width="20" height="20" viewBox="0 0 20 20" fill="none" xmlns="http://www.w3.org/2000/svg">
  <path d="M12.9127 9.93926L15.8672 7.94224C16.3984 7.58313 17.1152 7.96376 17.1152 8.60504L17.1152 12.3196C17.1152 12.9559 16.4083 13.3376 15.8763 12.9885L12.9203 11.049C12.5223 10.7879 12.5183 10.2058 12.9127 9.93926Z" fill="url(#paint0_linear_7926_93016)"/>
  <path d="M2.66663 6.66667C2.66663 5.74619 3.41282 5 4.33329 5H13C13.9204 5 14.6666 5.74619 14.6666 6.66667V13.3333C14.6666 14.2538 13.9204 15 13 15H4.33329C3.41282 15 2.66663 14.2538 2.66663 13.3333V6.66667Z" fill="url(#paint1_linear_7926_93016)"/>
  <g filter="url(#filter0_d_7926_93016)">
  <path d="M10.7576 9.2837L8.43683 7.8643C7.77048 7.45676 6.91507 7.9363 6.91507 8.71739L6.91507 11.5011C6.91507 12.2744 7.75523 12.7551 8.42186 12.3632L10.7426 10.9989C11.3936 10.6162 11.4018 9.6777 10.7576 9.2837Z" fill="url(#paint2_linear_7926_93016)"/>
  </g>
  <defs>
  <filter id="filter0_d_7926_93016" x="6.0489" y="7.2862" width="6.05311" height="6.51945" filterUnits="userSpaceOnUse" color-interpolation-filters="sRGB">
  <feFlood flood-opacity="0" result="BackgroundImageFix"/>
  <feColorMatrix in="SourceAlpha" type="matrix" values="0 0 0 0 0 0 0 0 0 0 0 0 0 0 0 0 0 0 127 0" result="hardAlpha"/>
  <feOffset dy="0.436551"/>
  <feGaussianBlur stdDeviation="0.433086"/>
  <feComposite in2="hardAlpha" operator="out"/>
  <feColorMatrix type="matrix" values="0 0 0 0 0 0 0 0 0 0 0 0 0 0 0 0 0 0 0.25 0"/>
  <feBlend mode="normal" in2="BackgroundImageFix" result="effect1_dropShadow_7926_93016"/>
  <feBlend mode="normal" in="SourceGraphic" in2="effect1_dropShadow_7926_93016" result="shape"/>
  </filter>
  <linearGradient id="paint0_linear_7926_93016" x1="15.8074" y1="7.6665" x2="15.5834" y2="13.3243" gradientUnits="userSpaceOnUse">
  <stop stop-color="#797979"/>
  <stop offset="1" stop-color="#3E3E3E"/>
  </linearGradient>
  <linearGradient id="paint1_linear_7926_93016" x1="8.99996" y1="5.66667" x2="8.99996" y2="15.1667" gradientUnits="userSpaceOnUse">
  <stop stop-color="#757575"/>
  <stop offset="1" stop-color="#3F3F3F"/>
  </linearGradient>
  <linearGradient id="paint2_linear_7926_93016" x1="7.99999" y1="12.6673" x2="7.23204" y2="7.78813" gradientUnits="userSpaceOnUse">
  <stop stop-color="#FF971D"/>
  <stop offset="1" stop-color="#FFCE50"/>
  </linearGradient>
  </defs>
  </svg>
  